<?xml version="1.0" encoding="utf-8"?>
<!-- Generator: Adobe Illustrator 15.0.2, SVG Export Plug-In . SVG Version: 6.00 Build 0)  -->
<!DOCTYPE svg PUBLIC "-//W3C//DTD SVG 1.1//EN" "http://www.w3.org/Graphics/SVG/1.1/DTD/svg11.dtd">
<svg version="1.1" id="Слой_1" xmlns="http://www.w3.org/2000/svg" xmlns:xlink="http://www.w3.org/1999/xlink" x="0px" y="0px"
	 width="96px" height="96px" viewBox="0 0 96 96" enable-background="new 0 0 96 96" xml:space="preserve">
<rect fill="none" width="96" height="96"/>
<path opacity="0.5" enable-background="new    " d="M88,47.999C88,77.634,77.641,88,48.002,88C18.364,88,8,77.634,8,47.999
	C8.001,18.363,18.366,8,48.003,8C77.641,8,88,18.363,88,47.999z"/>
<linearGradient id="SVGID_1_" gradientUnits="userSpaceOnUse" x1="3558.7754" y1="6556.0957" x2="3558.7754" y2="6477.4043" gradientTransform="matrix(1 0 0 1 -3510.7754 -6469.585)">
	<stop  offset="0" style="stop-color:#960021"/>
	<stop  offset="1" style="stop-color:#E60014"/>
</linearGradient>
<path fill="url(#SVGID_1_)" d="M87.5,47.499C87.5,76.764,77.27,87,48.002,87C18.735,87,8.5,76.764,8.5,47.499
	C8.501,18.234,18.737,8,48.003,8C77.27,8,87.5,18.234,87.5,47.499z"/>
<path opacity="0.05" enable-background="new    " d="M72.246,42.24C73.113,40.131,73.5,37.423,73.5,34
	c0-10.744-3.756-14.5-14.499-14.5c-5.169,0-8.707,0.882-11.001,2.98c-2.294-2.098-5.832-2.98-10.999-2.98
	C26.256,19.5,22.5,23.256,22.5,34c0,3.424,0.387,6.132,1.254,8.241C19.627,44.191,18,48.216,18,55.25
	c0,10.742,3.756,14.5,14.501,14.5c0.48,0,0.93-0.017,1.382-0.032c1.186,6.861,5.29,9.407,14.118,9.407
	c8.826,0,12.93-2.546,14.115-9.407c0.453,0.016,0.904,0.032,1.385,0.032C74.244,69.75,78,65.992,78,55.25
	C78,48.215,76.373,44.191,72.246,42.24z M46.617,50.157c-0.203-1.172-0.489-2.22-0.871-3.148c0.855-0.404,1.606-0.897,2.254-1.49
	c0.647,0.592,1.398,1.085,2.254,1.49c-0.382,0.928-0.668,1.977-0.87,3.148c-0.453-0.016-0.903-0.032-1.383-0.032
	C47.52,50.125,47.07,50.142,46.617,50.157z"/>
<path opacity="0.1" enable-background="new    " d="M71.535,42.248C72.547,40.14,73,37.362,73,33.75c0-10.374-3.627-14-13.999-14
	c-5.28,0-8.805,0.947-11.001,3.237c-2.195-2.29-5.72-3.237-10.999-3.237C26.627,19.75,23,23.376,23,33.75
	c0,3.612,0.453,6.39,1.465,8.498C20.172,44.054,18.5,47.977,18.5,55c0,10.371,3.626,14,14.001,14c0.632,0,1.238-0.015,1.821-0.042
	c1.071,6.87,5.018,9.417,13.679,9.417c8.659,0,12.606-2.546,13.678-9.417C62.262,68.985,62.868,69,63.501,69
	C73.873,69,77.5,65.371,77.5,55C77.5,47.977,75.828,44.054,71.535,42.248z M46.178,50.417c-0.235-1.507-0.611-2.806-1.143-3.915
	c1.18-0.497,2.163-1.153,2.965-1.99c0.803,0.837,1.785,1.494,2.965,1.99c-0.532,1.108-0.908,2.407-1.144,3.915
	c-0.583-0.027-1.188-0.042-1.82-0.042C47.368,50.375,46.762,50.39,46.178,50.417z"/>
<path opacity="0.2" enable-background="new    " d="M70.795,42.276c1.189-2.09,1.705-4.956,1.705-8.776
	c0-10.003-3.498-13.5-13.499-13.5c-5.424,0-8.923,1.042-11.001,3.577C45.922,21.042,42.424,20,37.001,20
	C26.998,20,23.5,23.497,23.5,33.5c0,3.821,0.516,6.687,1.705,8.776C20.73,43.931,19,47.737,19,54.75c0,10,3.497,13.5,13.501,13.5
	c0.797,0,1.539-0.031,2.255-0.077c0.948,6.905,4.739,9.452,13.245,9.452c8.504,0,12.295-2.547,13.242-9.452
	c0.718,0.046,1.46,0.077,2.258,0.077C73.502,68.25,77,64.75,77,54.75C77,47.737,75.27,43.931,70.795,42.276z M45.744,50.702
	c-0.259-1.887-0.725-3.458-1.448-4.729c1.552-0.574,2.771-1.413,3.704-2.551c0.933,1.138,2.152,1.977,3.705,2.551
	c-0.724,1.271-1.189,2.841-1.449,4.729c-0.716-0.046-1.457-0.077-2.255-0.077C47.203,50.625,46.46,50.656,45.744,50.702z"/>
<path opacity="0.35" enable-background="new    " d="M69.973,42.303C71.391,40.252,72,37.314,72,33.25c0-9.632-3.368-13-12.999-13
	c-5.595,0-9.065,1.148-11.001,3.988c-1.936-2.839-5.405-3.988-10.999-3.988c-9.633,0-13.001,3.368-13.001,13
	c0,4.064,0.61,7.002,2.027,9.054C21.309,43.785,19.5,47.468,19.5,54.5c0,9.63,3.368,13,13.001,13c0.964,0,1.848-0.044,2.689-0.114
	c0.822,6.948,4.459,9.489,12.811,9.489c8.35,0,11.987-2.541,12.809-9.489c0.842,0.07,1.727,0.114,2.691,0.114
	c9.631,0,12.999-3.37,12.999-13C76.5,47.467,74.69,43.785,69.973,42.303z M45.31,50.989c-0.274-2.316-0.866-4.139-1.836-5.543
	c2.009-0.631,3.491-1.665,4.527-3.185c1.036,1.52,2.518,2.554,4.527,3.185c-0.971,1.404-1.563,3.227-1.837,5.543
	c-0.841-0.07-1.726-0.114-2.689-0.114C47.036,50.875,46.151,50.919,45.31,50.989z"/>
<g>
	<linearGradient id="SVGID_2_" gradientUnits="userSpaceOnUse" x1="32.4009" y1="66.5957" x2="32.4009" y2="41.6938">
		<stop  offset="0" style="stop-color:#808080"/>
		<stop  offset="1" style="stop-color:#E5E5E5"/>
	</linearGradient>
	<path opacity="0.5" fill="url(#SVGID_2_)" d="M34.5,64.125c0-8.849,2.746-12.601,10.302-13.35
		C43.989,44.17,40.488,41.75,32.5,41.75c-9.262,0-12.5,3.239-12.5,12.5c0,9.262,3.238,12.5,12.5,12.5c0.743,0,1.433-0.029,2.1-0.072
		C34.54,65.873,34.5,65.035,34.5,64.125z"/>
	<linearGradient id="SVGID_3_" gradientUnits="userSpaceOnUse" x1="32.4009" y1="66.6719" x2="32.4009" y2="41.9086">
		<stop  offset="0" style="stop-color:#000000;stop-opacity:0.4"/>
		<stop  offset="1" style="stop-color:#FFFFFF"/>
	</linearGradient>
	<path opacity="0.4" fill="url(#SVGID_3_)" enable-background="new    " d="M34.536,65.679c-0.645,0.042-1.313,0.071-2.037,0.071
		c-8.598,0-11.5-2.902-11.5-11.501c0-8.599,2.903-11.499,11.5-11.499c7.361,0,10.54,2.141,11.304,8.153
		c0.326-0.048,0.653-0.094,1-0.128c-0.814-6.605-4.317-9.025-12.304-9.025C23.238,41.75,20,44.989,20,54.25
		c0,9.262,3.237,12.5,12.498,12.5c0.744,0,1.435-0.029,2.102-0.072C34.576,66.35,34.55,66.023,34.536,65.679z"/>
</g>
<g>
	<linearGradient id="SVGID_4_" gradientUnits="userSpaceOnUse" x1="47.8296" y1="75.9707" x2="47.8296" y2="51.0684">
		<stop  offset="0" style="stop-color:#808080"/>
		<stop  offset="1" style="stop-color:#E5E5E5"/>
	</linearGradient>
	<path opacity="0.6" fill="url(#SVGID_4_)" d="M50,54.75c0-1.289,0.061-2.467,0.184-3.546c-0.691-0.047-1.409-0.079-2.184-0.079
		c-9.262,0-12.5,3.238-12.5,12.5s3.238,12.5,12.5,12.5c7.579,0,11.12-2.174,12.159-8.036C52.707,67.307,50,63.542,50,54.75z"/>
	<linearGradient id="SVGID_5_" gradientUnits="userSpaceOnUse" x1="47.8296" y1="76.0469" x2="47.8296" y2="51.2831">
		<stop  offset="0" style="stop-color:#000000;stop-opacity:0.4"/>
		<stop  offset="1" style="stop-color:#FFFFFF"/>
	</linearGradient>
	<path opacity="0.4" fill="url(#SVGID_5_)" enable-background="new    " d="M59.157,67.95c-0.981,5.273-4.208,7.175-11.158,7.175
		c-8.598,0-11.5-2.902-11.5-11.501s2.903-11.499,11.5-11.499c0.748,0,1.438,0.031,2.101,0.076c0.025-0.337,0.048-0.679,0.084-0.997
		c-0.692-0.047-1.41-0.079-2.186-0.079c-9.26,0-12.498,3.238-12.498,12.5s3.237,12.5,12.498,12.5c7.577,0,11.121-2.174,12.16-8.036
		C59.811,68.052,59.485,68,59.157,67.95z"/>
</g>
<g>
	<linearGradient id="SVGID_6_" gradientUnits="userSpaceOnUse" x1="63.5" y1="66.6016" x2="63.5" y2="42.7206">
		<stop  offset="0" style="stop-color:#808080"/>
		<stop  offset="1" style="stop-color:#E5E5E5"/>
	</linearGradient>
	<path opacity="0.7" fill="url(#SVGID_6_)" d="M70.477,42.775C68.478,45.783,64.862,47,59.001,47c-2.585,0-4.728-0.239-6.496-0.759
		C51.454,48.166,51,50.786,51,54.25c0,9.262,3.238,12.5,12.5,12.5S76,63.512,76,54.25C76,47.869,74.461,44.349,70.477,42.775z"/>
	<linearGradient id="SVGID_7_" gradientUnits="userSpaceOnUse" x1="63.5" y1="66.833" x2="63.5" y2="41.666">
		<stop  offset="0" style="stop-color:#000000;stop-opacity:0.4"/>
		<stop  offset="1" style="stop-color:#FFFFFF"/>
	</linearGradient>
	<path opacity="0.4" fill="url(#SVGID_7_)" enable-background="new    " d="M70.476,42.775c-0.202,0.304-0.422,0.59-0.658,0.858
		c3.763,1.405,5.181,4.625,5.181,10.616c0,8.599-2.904,11.501-11.499,11.501c-8.598,0-11.501-2.902-11.501-11.501
		c0-3.436,0.475-5.949,1.58-7.744c-0.369-0.079-0.732-0.164-1.073-0.264C51.454,48.166,51,50.786,51,54.25
		c0,9.262,3.237,12.5,12.498,12.5c9.26,0,12.502-3.238,12.502-12.5C76,47.87,74.46,44.349,70.476,42.775z"/>
</g>
<g>
	<linearGradient id="SVGID_8_" gradientUnits="userSpaceOnUse" x1="59.9922" y1="45.3457" x2="59.9922" y2="20.4434">
		<stop  offset="0" style="stop-color:#808080"/>
		<stop  offset="1" style="stop-color:#E5E5E5"/>
	</linearGradient>
	<path opacity="0.8" fill="url(#SVGID_8_)" d="M59,20.5c-5.317,0-8.642,1.076-10.515,3.738c1.406,2.124,2.015,5.131,2.015,9.262
		c0,3.78-0.502,6.628-1.664,8.712C50.763,44.542,53.996,45.5,59,45.5c9.262,0,12.5-3.239,12.5-12.5S68.262,20.5,59,20.5z"/>
	<linearGradient id="SVGID_9_" gradientUnits="userSpaceOnUse" x1="59.9922" y1="45.4219" x2="59.9922" y2="20.6581">
		<stop  offset="0" style="stop-color:#000000;stop-opacity:0.4"/>
		<stop  offset="1" style="stop-color:#FFFFFF"/>
	</linearGradient>
	<path opacity="0.4" fill="url(#SVGID_9_)" enable-background="new    " d="M58.998,20.5c-5.316,0-8.64,1.076-10.513,3.738
		c0.213,0.322,0.409,0.666,0.585,1.03c1.658-2.707,4.758-3.768,9.929-3.768c8.595,0,11.499,2.901,11.499,11.499
		c0,8.599-2.904,11.501-11.499,11.501c-4.896,0-7.94-0.946-9.659-3.345c-0.151,0.372-0.318,0.726-0.504,1.058
		c1.927,2.329,5.159,3.287,10.162,3.287c9.26,0,12.502-3.239,12.502-12.5S68.258,20.5,58.998,20.5z"/>
</g>
<g>
	<linearGradient id="SVGID_10_" gradientUnits="userSpaceOnUse" x1="37.0005" y1="44.5283" x2="37.0005" y2="20.445">
		<stop  offset="0" style="stop-color:#808080"/>
		<stop  offset="1" style="stop-color:#E5E5E5"/>
	</linearGradient>
	<path fill="url(#SVGID_10_)" d="M37,20.5c-9.262,0-12.5,3.239-12.5,12.5c0,4.01,0.611,6.888,2.051,8.866
		c1.661-0.417,3.623-0.616,5.95-0.616c5.314,0,8.777,1.002,10.87,3.428C47.796,43.223,49.5,39.687,49.5,33
		C49.5,23.739,46.261,20.5,37,20.5z"/>
	<linearGradient id="SVGID_11_" gradientUnits="userSpaceOnUse" x1="37.0005" y1="45.6851" x2="37.0005" y2="20.4978">
		<stop  offset="0" style="stop-color:#000000;stop-opacity:0.4"/>
		<stop  offset="1" style="stop-color:#FFFFFF"/>
	</linearGradient>
	<path opacity="0.4" fill="url(#SVGID_11_)" enable-background="new    " d="M36.998,20.5C27.738,20.5,24.5,23.739,24.5,33
		c0,4.011,0.61,6.888,2.051,8.866c0.374-0.094,0.757-0.181,1.163-0.252c-1.564-1.815-2.215-4.582-2.215-8.614
		c0-8.599,2.903-11.499,11.5-11.499c8.595,0,11.5,2.901,11.5,11.499c0,6.379-1.605,9.618-5.94,10.868
		c0.291,0.25,0.562,0.52,0.813,0.81C47.795,43.222,49.5,39.687,49.5,33C49.5,23.739,46.258,20.5,36.998,20.5z"/>
</g>
<linearGradient id="SVGID_12_" gradientUnits="userSpaceOnUse" x1="48.0005" y1="86.7529" x2="48.0005" y2="8.5">
	<stop  offset="0" style="stop-color:#000000;stop-opacity:0.4"/>
	<stop  offset="1" style="stop-color:#FFFFFF"/>
</linearGradient>
<path opacity="0.4" fill="url(#SVGID_12_)" enable-background="new    " d="M47.997,8C18.734,8,8.5,18.235,8.5,47.499
	C8.5,76.768,18.733,87,47.997,87C77.262,87,87.5,76.766,87.5,47.499C87.5,18.235,77.262,8,47.997,8z M48,86
	C19.215,86,9.5,76.281,9.5,47.495C9.5,18.712,19.215,9,48,9c28.781,0,38.5,9.713,38.5,38.496C86.5,76.281,76.777,86,48,86z"/>
</svg>
